<svg width="900" height="760" viewBox="0 0 900 760" fill="none" xmlns="http://www.w3.org/2000/svg">
  <rect width="900" height="760" fill="url(#bg)"/>
  <circle cx="720" cy="140" r="54" fill="#F2E0B2" fill-opacity="0.88"/>
  <path d="M0 470L160 418L286 470L452 376L614 458L774 404L900 442V760H0V470Z" fill="#263F36"/>
  <path d="M80 596L276 288L420 514L560 242L748 596H80Z" fill="#426A57"/>
  <path d="M276 288L342 400L304 414L270 360L214 450L178 472L276 288Z" fill="#F9F4E7"/>
  <path d="M560 242L638 368L592 382L552 322L478 440L434 466L560 242Z" fill="#F9F4E7"/>
  <path d="M0 592L160 570L314 606L470 576L628 620L780 584L900 606V760H0V592Z" fill="#172922"/>
  <path d="M252 598L326 524L400 598H252Z" fill="#E0BC7B"/>
  <path d="M382 610L450 548L512 610H382Z" fill="#D29D58"/>
  <rect x="610" y="524" width="6" height="84" fill="#E6C483"/>
  <path d="M586 548L612 526L638 548L612 564L586 548Z" fill="#E6C483"/>
  <defs>
    <linearGradient id="bg" x1="450" y1="0" x2="450" y2="760" gradientUnits="userSpaceOnUse">
      <stop stop-color="#1A3028"/>
      <stop offset="0.54" stop-color="#5B7D68"/>
      <stop offset="1" stop-color="#DB9F59"/>
    </linearGradient>
  </defs>
</svg>
