<svg width="1600" height="1100" viewBox="0 0 1600 1100" fill="none" xmlns="http://www.w3.org/2000/svg">
  <rect width="1600" height="1100" fill="#0E1714"/>
  <rect width="1600" height="1100" fill="url(#sky)"/>
  <circle cx="1210" cy="178" r="90" fill="#F2DDAE" fill-opacity="0.85"/>
  <path d="M0 710L174 604L320 664L534 498L700 652L880 406L1038 596L1232 430L1426 626L1600 538V1100H0V710Z" fill="#23362E"/>
  <path d="M0 798L154 742L282 784L472 642L614 760L858 530L1030 722L1204 548L1388 740L1600 664V1100H0V798Z" fill="#345044"/>
  <path d="M250 780L530 470L666 686L896 352L1098 702L1290 470L1480 780L1600 1100H0L118 928L250 780Z" fill="#486B58"/>
  <path d="M250 780L530 470L602 584L560 602L518 544L406 694L250 780Z" fill="#F7F1E5"/>
  <path d="M896 352L1040 548L986 560L930 480L844 604L784 636L896 352Z" fill="#F7F1E5"/>
  <path d="M1290 470L1378 608L1332 618L1294 560L1190 694L1132 724L1290 470Z" fill="#F7F1E5"/>
  <path d="M0 872L194 826L360 854L556 732L754 838L970 704L1168 812L1390 736L1600 784V1100H0V872Z" fill="#0E1714" fill-opacity="0.55"/>
  <defs>
    <linearGradient id="sky" x1="800" y1="0" x2="800" y2="1100" gradientUnits="userSpaceOnUse">
      <stop stop-color="#213B33"/>
      <stop offset="0.45" stop-color="#446655"/>
      <stop offset="1" stop-color="#D39C59"/>
    </linearGradient>
  </defs>
</svg>
